<svg viewBox="0 0 330.0000305175781 200.00001525878906" xmlns="http://www.w3.org/2000/svg"><g><g><g><g><g><line x1="51.5625" y1="172.4375" x2="46.5625" y2="172.4375" style="visibility: inherit;" fill="rgb(0, 0, 0)" stroke="rgb(204, 204, 204)" stroke-width="1px"></line><line x1="51.5625" y1="144.62499999999997" x2="46.5625" y2="144.62499999999997" style="visibility: inherit;" fill="rgb(0, 0, 0)" stroke="rgb(204, 204, 204)" stroke-width="1px"></line><line x1="51.5625" y1="116.81249999999996" x2="46.5625" y2="116.81249999999996" style="visibility: inherit;" fill="rgb(0, 0, 0)" stroke="rgb(204, 204, 204)" stroke-width="1px"></line><line x1="51.5625" y1="88.99999999999994" x2="46.5625" y2="88.99999999999994" style="visibility: inherit;" fill="rgb(0, 0, 0)" stroke="rgb(204, 204, 204)" stroke-width="1px"></line><line x1="51.5625" y1="61.18749999999992" x2="46.5625" y2="61.18749999999992" style="visibility: inherit;" fill="rgb(0, 0, 0)" stroke="rgb(204, 204, 204)" stroke-width="1px"></line><line x1="51.5625" y1="33.37500000000002" x2="46.5625" y2="33.37500000000002" style="visibility: inherit;" fill="rgb(0, 0, 0)" stroke="rgb(204, 204, 204)" stroke-width="1px"></line><line x1="51.5625" y1="5.5625" x2="46.5625" y2="5.5625" style="visibility: inherit;" fill="rgb(0, 0, 0)" stroke="rgb(204, 204, 204)" stroke-width="1px"></line></g><g transform="translate(41.5625, 0)"><text x="0" y="172.4375" dx="0em" dy="0.3em" style="text-anchor: end; visibility: inherit; font-family: Roboto, sans-serif; font-size: 12px; font-weight: 200;" fill="rgb(50, 49, 63)" stroke="none" stroke-width="1px">1.15</text><text x="0" y="144.62499999999997" dx="0em" dy="0.3em" style="text-anchor: end; visibility: inherit; font-family: Roboto, sans-serif; font-size: 12px; font-weight: 200;" fill="rgb(50, 49, 63)" stroke="none" stroke-width="1px">1.2</text><text x="0" y="116.81249999999996" dx="0em" dy="0.3em" style="text-anchor: end; visibility: inherit; font-family: Roboto, sans-serif; font-size: 12px; font-weight: 200;" fill="rgb(50, 49, 63)" stroke="none" stroke-width="1px">1.25</text><text x="0" y="88.99999999999994" dx="0em" dy="0.3em" style="text-anchor: end; visibility: inherit; font-family: Roboto, sans-serif; font-size: 12px; font-weight: 200;" fill="rgb(50, 49, 63)" stroke="none" stroke-width="1px">1.3</text><text x="0" y="61.18749999999992" dx="0em" dy="0.3em" style="text-anchor: end; visibility: inherit; font-family: Roboto, sans-serif; font-size: 12px; font-weight: 200;" fill="rgb(50, 49, 63)" stroke="none" stroke-width="1px">1.35</text><text x="0" y="33.37500000000002" dx="0em" dy="0.3em" style="text-anchor: end; visibility: inherit; font-family: Roboto, sans-serif; font-size: 12px; font-weight: 200;" fill="rgb(50, 49, 63)" stroke="none" stroke-width="1px">1.4</text><text x="0" y="5.5625" dx="0em" dy="0.3em" style="text-anchor: end; visibility: hidden; font-family: Roboto, sans-serif; font-size: 12px; font-weight: 200;" fill="rgb(50, 49, 63)" stroke="none" stroke-width="1px">1.45</text></g><line x1="51.5625" y1="0" x2="51.5625" y2="178" fill="rgb(0, 0, 0)" stroke="rgb(204, 204, 204)" stroke-width="1px"></line></g></g><g transform="translate(51, 0)" clip-path="url(#clip_0)"><clipPath id="clip_0"><rect width="278" height="177"></rect></clipPath><g><g><g><line x1="0" y1="0" x2="0" y2="178" fill="rgb(0, 0, 0)" stroke="rgb(60, 60, 60)" stroke-width="1px" opacity="0.25"></line><line x1="23.203125" y1="0" x2="23.203125" y2="178" fill="rgb(0, 0, 0)" stroke="rgb(60, 60, 60)" stroke-width="1px" opacity="0.25"></line><line x1="46.40625" y1="0" x2="46.40625" y2="178" fill="rgb(0, 0, 0)" stroke="rgb(60, 60, 60)" stroke-width="1px" opacity="0.25"></line><line x1="69.609375" y1="0" x2="69.609375" y2="178" fill="rgb(0, 0, 0)" stroke="rgb(60, 60, 60)" stroke-width="1px" opacity="0.25"></line><line x1="92.8125" y1="0" x2="92.8125" y2="178" fill="rgb(0, 0, 0)" stroke="rgb(60, 60, 60)" stroke-width="1px" opacity="0.25"></line><line x1="116.015625" y1="0" x2="116.015625" y2="178" fill="rgb(0, 0, 0)" stroke="rgb(60, 60, 60)" stroke-width="1px" opacity="0.25"></line><line x1="139.21875" y1="0" x2="139.21875" y2="178" fill="rgb(0, 0, 0)" stroke="rgb(60, 60, 60)" stroke-width="1px" opacity="0.25"></line><line x1="162.421875" y1="0" x2="162.421875" y2="178" fill="rgb(0, 0, 0)" stroke="rgb(60, 60, 60)" stroke-width="1px" opacity="0.25"></line><line x1="185.625" y1="0" x2="185.625" y2="178" fill="rgb(0, 0, 0)" stroke="rgb(60, 60, 60)" stroke-width="1px" opacity="0.25"></line><line x1="208.828125" y1="0" x2="208.828125" y2="178" fill="rgb(0, 0, 0)" stroke="rgb(60, 60, 60)" stroke-width="1px" opacity="0.25"></line><line x1="232.03125" y1="0" x2="232.03125" y2="178" fill="rgb(0, 0, 0)" stroke="rgb(60, 60, 60)" stroke-width="1px" opacity="0.25"></line><line x1="255.234375" y1="0" x2="255.234375" y2="178" fill="rgb(0, 0, 0)" stroke="rgb(60, 60, 60)" stroke-width="1px" opacity="0.25"></line><line x1="278.4375" y1="0" x2="278.4375" y2="178" fill="rgb(0, 0, 0)" stroke="rgb(60, 60, 60)" stroke-width="1px" opacity="0.25"></line></g><g><line x1="0" y1="172.4375" x2="278.4375" y2="172.4375" fill="rgb(0, 0, 0)" stroke="rgb(60, 60, 60)" stroke-width="1px" opacity="0.25"></line><line x1="0" y1="144.62499999999997" x2="278.4375" y2="144.62499999999997" fill="rgb(0, 0, 0)" stroke="rgb(60, 60, 60)" stroke-width="1px" opacity="0.25"></line><line x1="0" y1="116.81249999999996" x2="278.4375" y2="116.81249999999996" fill="rgb(0, 0, 0)" stroke="rgb(60, 60, 60)" stroke-width="1px" opacity="0.25"></line><line x1="0" y1="88.99999999999994" x2="278.4375" y2="88.99999999999994" fill="rgb(0, 0, 0)" stroke="rgb(60, 60, 60)" stroke-width="1px" opacity="0.25"></line><line x1="0" y1="61.18749999999992" x2="278.4375" y2="61.18749999999992" fill="rgb(0, 0, 0)" stroke="rgb(60, 60, 60)" stroke-width="1px" opacity="0.25"></line><line x1="0" y1="33.37500000000002" x2="278.4375" y2="33.37500000000002" fill="rgb(0, 0, 0)" stroke="rgb(60, 60, 60)" stroke-width="1px" opacity="0.25"></line><line x1="0" y1="5.5625" x2="278.4375" y2="5.5625" fill="rgb(0, 0, 0)" stroke="rgb(60, 60, 60)" stroke-width="1px" opacity="0.25"></line></g></g></g><g><g><line x1="0" y1="812.1249999999999" x2="278.4375" y2="812.1249999999999" fill="rgb(0, 0, 0)" stroke="rgb(153, 153, 153)" stroke-width="1.5px"></line></g></g><g><g><line x1="23.203125" y1="0" x2="23.203125" y2="178" fill="rgb(0, 0, 0)" stroke="rgb(153, 153, 153)" stroke-width="1.5px"></line></g></g><g><g><g><g><g><path stroke="rgb(255, 112, 67)" stroke-width="2px" d="M23.203125,22.951651751995065L27.84375,66.14781880378719L32.484375,82.00523221492763L37.125,108.0677140653133L41.765625,123.37879800796505L46.40625,130.00775912404058L51.04687499999999,118.2485129833221L55.6875,126.02676191925998L60.328125,131.52307906746861L64.96875,135.10316500067708L69.609375,138.93231192231175L74.25,142.0000855028629L78.890625,143.65406000614163L83.53125,145.14577353000638L88.171875,145.54900565743444L92.8125,137.1253598630428L97.453125,136.03667953610417L102.09374999999999,135.99808701872823L106.73437500000001,135.86201855540273L111.375,134.65059810876843L116.015625,135.50275006890294L120.65625,135.35640352964398L125.296875,135.0386452078819L129.9375,133.93617236614224L134.578125,134.5017317831516L139.21875,134.7349446415901L143.85937500000003,134.46426653861997L148.5,135.13539174199101L153.140625,135.3995714485645L157.78125,135.64657682180402L162.421875,135.81288272142407L167.0625,135.77236720919606L171.703125,135.8198452889919L176.34375,131.13118597865102L180.984375,129.64311951398847L185.625,127.79823803901668L190.265625,125.97895228862758L194.90625,124.03228470683094L199.546875,123.70723226666446L204.18749999999997,122.03429305553432L208.828125,120.76087260246273L213.46875000000003,118.85604673624034L218.109375,118.25461351871486L222.75,116.47140049934383L227.390625,115.9269940257072L232.03125,114.287342518568L236.671875,114.0057895481586" style="fill: none;" fill="none"></path></g><g><path stroke="rgb(0, 119, 187)" stroke-width="2px" d="M23.203125,-17.74999311566353L27.84375,65.56707435846324L32.484375,66.80070871114727L37.125,108.30987879633899L41.765625,126.70763471722599L46.40625,109.31169280409809L51.04687499999999,125.51451587676998L55.6875,138.45753112435338L60.328125,142.82783532142636L64.96875,117.10791179537769L69.609375,122.01440000534053L74.25,129.15282213687894L78.890625,135.5166752040386L83.53125,139.38792908191678L88.171875,117.1715032458305L92.8125,110.110266149044L97.453125,110.29116028547283L102.09374999999999,110.81958600878711L106.73437500000001,111.21200957894321L111.375,114.79706877470012L116.015625,117.47129151225086L120.65625,119.5686821043491L125.296875,120.48104369640346L129.9375,89.91510683298107L134.578125,86.58514285087581L139.21875,81.88693487644191L143.85937500000003,82.37696701288219L148.5,80.12938389182086L153.140625,79.43756991624828L157.78125,79.30309289693828L162.421875,80.16432934999462L167.0625,81.66976907849308L171.703125,83.84580352902408L176.34375,84.87918117642398L180.984375,85.27883255481716L185.625,85.62755772471424L190.265625,54.24892345070835L194.90625,49.42154327034948L199.546875,44.18058657646177L204.18749999999997,41.29178413748739L208.828125,37.146470338106134L213.46875000000003,34.20521655678747L218.109375,32.45190942287443L222.75,31.140228003263452L227.390625,30.558820456266382L232.03125,29.286593586206415L236.671875,28.84974220395086L241.3125,29.842140167951563L245.953125,30.64754346013067L250.59375,31.52734676003454" style="fill: none;" fill="none"></path></g><g><path stroke="rgb(51, 187, 238)" stroke-width="2px" d="M23.203125,22.844229280948618L27.84375,65.47974386811252L32.484375,83.5332837104797L37.125,116.34395235776897L41.765625,106.06004112958904L46.40625,117.84846374392505L51.04687499999999,134.5679093301296L55.6875,140.94263726472852L60.328125,117.79793539643283L64.96875,128.79023814201352L69.609375,138.9750819802284L74.25,142.40842351317403L78.890625,117.12555029988285L83.53125,123.0717819333076L88.171875,130.13096341490743L92.8125,135.56103670597074L97.453125,110.35554745793338L102.09374999999999,106.83374816179271L106.73437500000001,110.51615068316455L111.375,115.30069449543949L116.015625,120.38748005032535L120.65625,122.56683000922199L125.296875,92.3607584238052L129.9375,90.29022344946857L134.578125,93.97932329773899L139.21875,95.88680157065387L143.85937500000003,100.51836782693859L148.5,103.56890076398845L153.140625,104.49459069967266L157.78125,72.32109645009037L162.421875,71.94604614377018L167.0625,71.89531886577602L171.703125,72.26320767402645L176.34375,75.98586046695705L180.984375,78.51327249407764L185.625,81.38582894206043L190.265625,82.00337553024288L194.90625,48.36535492539404L199.546875,47.71140405535696L204.18749999999997,47.66293132305143L208.828125,46.42850124835966L213.46875000000003,48.19526934623716L218.109375,48.92713466286657L222.75,51.20031350851055L227.390625,53.3807907402515L232.03125,54.785041153430896L236.671875,55.35888934135433L241.3125,25.427938640117624L245.953125,20.250308156013467L250.59375,19.653715580701807" style="fill: none;" fill="none"></path></g><g><path stroke="rgb(0, 153, 136)" stroke-width="2px" d="M23.203125,26.878606170415857L27.84375,87.17205414175983L32.484375,110.99888870120044L37.125,118.52688306570049L41.765625,101.78422892093654L46.40625,119.59646606445308L51.04687499999999,130.89485654234883L55.6875,139.13820499181745L60.328125,143.63516160845754L64.96875,128.9718616902828L69.609375,126.40148067474361L74.25,129.99880725145337L78.890625,133.11830276250836L83.53125,138.0136508643627L88.171875,140.6651292145252L92.8125,141.79432505369184L97.453125,121.12047263979908L102.09374999999999,121.91035935282703L106.73437500000001,121.28982880711551L111.375,124.61011150479312L116.015625,126.14061647653575L120.65625,127.91408190131183L125.296875,129.6060521304607L129.9375,130.05656340718267L134.578125,112.36753055453296L139.21875,110.6703218221664L143.85937500000003,109.41599869728084L148.5,109.54391101002689L153.140625,110.4601849019527L157.78125,111.11393684148784L162.421875,112.06794121861454L167.0625,113.13712635636325L171.703125,113.63498309254642L176.34375,97.65230977535244L180.984375,97.113672286272L185.625,94.58705598115917L190.265625,92.51340442895885L194.90625,93.41276922821994L199.546875,93.96201634407039L204.18749999999997,94.12613400816913L208.828125,94.49733832478519L213.46875000000003,95.62494271993633L218.109375,95.99767217040058L222.75,96.17080801725383L227.390625,86.72804126143451L232.03125,82.63259270787235L236.671875,79.58099880814548L241.3125,77.77908632159229L245.953125,76.62469261884685L250.59375,76.82448515295978" style="fill: none;" fill="none"></path></g></g></g></g></g></g><g transform="translate(51, 178)" clip-path="url(#clip_1)"><clipPath id="clip_1"><rect width="278" height="21"></rect></clipPath><g><g><line x1="0" y1="0" x2="0" y2="5" style="visibility: inherit;" fill="rgb(0, 0, 0)" stroke="rgb(204, 204, 204)" stroke-width="1px"></line><line x1="23.203125" y1="0" x2="23.203125" y2="5" style="visibility: inherit;" fill="rgb(0, 0, 0)" stroke="rgb(204, 204, 204)" stroke-width="1px"></line><line x1="46.40625" y1="0" x2="46.40625" y2="5" style="visibility: inherit;" fill="rgb(0, 0, 0)" stroke="rgb(204, 204, 204)" stroke-width="1px"></line><line x1="69.609375" y1="0" x2="69.609375" y2="5" style="visibility: inherit;" fill="rgb(0, 0, 0)" stroke="rgb(204, 204, 204)" stroke-width="1px"></line><line x1="92.8125" y1="0" x2="92.8125" y2="5" style="visibility: inherit;" fill="rgb(0, 0, 0)" stroke="rgb(204, 204, 204)" stroke-width="1px"></line><line x1="116.015625" y1="0" x2="116.015625" y2="5" style="visibility: inherit;" fill="rgb(0, 0, 0)" stroke="rgb(204, 204, 204)" stroke-width="1px"></line><line x1="139.21875" y1="0" x2="139.21875" y2="5" style="visibility: inherit;" fill="rgb(0, 0, 0)" stroke="rgb(204, 204, 204)" stroke-width="1px"></line><line x1="162.421875" y1="0" x2="162.421875" y2="5" style="visibility: inherit;" fill="rgb(0, 0, 0)" stroke="rgb(204, 204, 204)" stroke-width="1px"></line><line x1="185.625" y1="0" x2="185.625" y2="5" style="visibility: inherit;" fill="rgb(0, 0, 0)" stroke="rgb(204, 204, 204)" stroke-width="1px"></line><line x1="208.828125" y1="0" x2="208.828125" y2="5" style="visibility: inherit;" fill="rgb(0, 0, 0)" stroke="rgb(204, 204, 204)" stroke-width="1px"></line><line x1="232.03125" y1="0" x2="232.03125" y2="5" style="visibility: inherit;" fill="rgb(0, 0, 0)" stroke="rgb(204, 204, 204)" stroke-width="1px"></line><line x1="255.234375" y1="0" x2="255.234375" y2="5" style="visibility: inherit;" fill="rgb(0, 0, 0)" stroke="rgb(204, 204, 204)" stroke-width="1px"></line><line x1="278.4375" y1="0" x2="278.4375" y2="5" style="visibility: inherit;" fill="rgb(0, 0, 0)" stroke="rgb(204, 204, 204)" stroke-width="1px"></line></g><g transform="translate(0, 8)"><text x="0" y="0" dx="0em" dy="0.95em" style="text-anchor: middle; visibility: hidden; font-family: Roboto, sans-serif; font-size: 12px; font-weight: 200;" fill="rgb(50, 49, 63)" stroke="none" stroke-width="1px">-5</text><text x="23.203125" y="0" dx="0em" dy="0.95em" style="text-anchor: middle; visibility: inherit; font-family: Roboto, sans-serif; font-size: 12px; font-weight: 200;" fill="rgb(50, 49, 63)" stroke="none" stroke-width="1px">0</text><text x="46.40625" y="0" dx="0em" dy="0.95em" style="text-anchor: middle; visibility: inherit; font-family: Roboto, sans-serif; font-size: 12px; font-weight: 200;" fill="rgb(50, 49, 63)" stroke="none" stroke-width="1px">5</text><text x="69.609375" y="0" dx="0em" dy="0.95em" style="text-anchor: middle; visibility: inherit; font-family: Roboto, sans-serif; font-size: 12px; font-weight: 200;" fill="rgb(50, 49, 63)" stroke="none" stroke-width="1px">10</text><text x="92.8125" y="0" dx="0em" dy="0.95em" style="text-anchor: middle; visibility: inherit; font-family: Roboto, sans-serif; font-size: 12px; font-weight: 200;" fill="rgb(50, 49, 63)" stroke="none" stroke-width="1px">15</text><text x="116.015625" y="0" dx="0em" dy="0.95em" style="text-anchor: middle; visibility: inherit; font-family: Roboto, sans-serif; font-size: 12px; font-weight: 200;" fill="rgb(50, 49, 63)" stroke="none" stroke-width="1px">20</text><text x="139.21875" y="0" dx="0em" dy="0.95em" style="text-anchor: middle; visibility: inherit; font-family: Roboto, sans-serif; font-size: 12px; font-weight: 200;" fill="rgb(50, 49, 63)" stroke="none" stroke-width="1px">25</text><text x="162.421875" y="0" dx="0em" dy="0.95em" style="text-anchor: middle; visibility: inherit; font-family: Roboto, sans-serif; font-size: 12px; font-weight: 200;" fill="rgb(50, 49, 63)" stroke="none" stroke-width="1px">30</text><text x="185.625" y="0" dx="0em" dy="0.95em" style="text-anchor: middle; visibility: inherit; font-family: Roboto, sans-serif; font-size: 12px; font-weight: 200;" fill="rgb(50, 49, 63)" stroke="none" stroke-width="1px">35</text><text x="208.828125" y="0" dx="0em" dy="0.95em" style="text-anchor: middle; visibility: inherit; font-family: Roboto, sans-serif; font-size: 12px; font-weight: 200;" fill="rgb(50, 49, 63)" stroke="none" stroke-width="1px">40</text><text x="232.03125" y="0" dx="0em" dy="0.95em" style="text-anchor: middle; visibility: inherit; font-family: Roboto, sans-serif; font-size: 12px; font-weight: 200;" fill="rgb(50, 49, 63)" stroke="none" stroke-width="1px">45</text><text x="255.234375" y="0" dx="0em" dy="0.95em" style="text-anchor: middle; visibility: inherit; font-family: Roboto, sans-serif; font-size: 12px; font-weight: 200;" fill="rgb(50, 49, 63)" stroke="none" stroke-width="1px">50</text><text x="278.4375" y="0" dx="0em" dy="0.95em" style="text-anchor: middle; visibility: hidden; font-family: Roboto, sans-serif; font-size: 12px; font-weight: 200;" fill="rgb(50, 49, 63)" stroke="none" stroke-width="1px">55</text></g><line x1="0" y1="0" x2="278.4375" y2="0" fill="rgb(0, 0, 0)" stroke="rgb(204, 204, 204)" stroke-width="1px"></line></g></g></g></g></svg>